<?xml version="1.0" encoding="UTF-8" standalone="no" ?>
<!DOCTYPE svg PUBLIC "-//W3C//DTD SVG 1.1//EN" "http://www.w3.org/Graphics/SVG/1.1/DTD/svg11.dtd">
<svg xmlns="http://www.w3.org/2000/svg" xmlns:xlink="http://www.w3.org/1999/xlink" version="1.1" width="1280" height="1024" viewBox="0 0 1280 1024" xml:space="preserve">
<desc>Created with Fabric.js 4.4.0</desc>
<defs>
</defs>
<g transform="matrix(1 0 0 1 640 512)" id="background-logo"  >
<rect style="stroke: none; stroke-width: 0; stroke-dasharray: none; stroke-linecap: butt; stroke-dashoffset: 0; stroke-linejoin: miter; stroke-miterlimit: 4; fill: rgb(255,255,255); fill-opacity: 0; fill-rule: nonzero; opacity: 1;"  paint-order="stroke"  x="-640" y="-512" rx="0" ry="0" width="1280" height="1024" />
</g>
<g transform="matrix(1.562596724240097 0 0 1.562596724240097 165.59402303415413 512.0835249362484)" id="logo-logo"  >
<g style=""  paint-order="stroke"   >
		<g transform="matrix(2.1780150595615053 0 0 2.1780150595615053 0 0)"  >
<path style="stroke: none; stroke-width: 1; stroke-dasharray: none; stroke-linecap: butt; stroke-dashoffset: 0; stroke-linejoin: miter; stroke-miterlimit: 4; fill: rgb(255,255,255); fill-rule: nonzero; opacity: 1;"  paint-order="stroke"  transform=" translate(-43.585, -51.36500000000001)" d="M 46.24 102.73 L 46.24 91.31 L 47.82 91.13 C 52.3 90.61999999999999 56.56 89.38 60.480000000000004 87.52 C 63.93000000000001 85.89 67.11 83.78 69.94 81.28 L 67.8 79.35 C 61.14 84.58999999999999 52.97 87.55 44.78999999999999 87.81 C 36.47999999999999 88.07000000000001 28.159999999999993 85.55 21.409999999999993 79.79 L 20.019999999999992 78.60000000000001 L 21.249999999999993 77.25000000000001 C 22.209999999999994 76.19000000000001 22.939999999999994 75.37000000000002 23.669999999999995 74.55000000000001 C 24.569999999999993 73.53000000000002 25.479999999999993 72.51 26.119999999999994 71.81000000000002 L 27.269999999999992 70.55000000000001 L 28.57999999999999 71.65 C 30.609999999999992 73.36 33.58999999999999 74.77000000000001 36.92999999999999 75.66000000000001 C 40.58999999999999 76.64000000000001 44.629999999999995 76.99000000000001 48.279999999999994 76.46000000000001 C 51.779999999999994 75.95 54.88999999999999 74.63000000000001 56.879999999999995 72.26 C 57.76 71.22 58.42999999999999 69.96000000000001 58.83 68.46000000000001 C 59.75 65.01 58.199999999999996 62.31000000000001 55.4 60.00000000000001 C 52.239999999999995 57.38000000000001 47.53 55.18000000000001 42.83 52.980000000000004 C 37.91 50.68000000000001 32.98 48.370000000000005 29.5 45.49 C 25.65 42.300000000000004 23.54 38.47 24.9 33.370000000000005 C 25.439999999999998 31.340000000000003 26.36 29.630000000000003 27.57 28.190000000000005 C 30.18 25.100000000000005 34.07 23.400000000000006 38.370000000000005 22.770000000000003 C 42.510000000000005 22.160000000000004 47.06 22.550000000000004 51.150000000000006 23.650000000000002 C 54.300000000000004 24.490000000000002 57.21000000000001 25.770000000000003 59.50000000000001 27.340000000000003 C 59.980000000000004 26.810000000000002 60.400000000000006 26.330000000000002 60.830000000000005 25.840000000000003 C 61.230000000000004 25.380000000000003 61.64000000000001 24.930000000000003 62.010000000000005 24.500000000000004 C 56.24000000000001 20.160000000000004 49.36000000000001 18.250000000000004 42.470000000000006 18.470000000000002 C 34.59 18.720000000000002 26.700000000000006 21.740000000000002 20.450000000000006 27.07 L 19.260000000000005 28.080000000000002 L 11.990000000000006 21.520000000000003 L 13.350000000000005 20.200000000000003 C 16.790000000000006 16.860000000000003 20.780000000000005 14.080000000000002 25.160000000000004 12.000000000000004 C 28.960000000000004 10.200000000000003 33.06 8.930000000000003 37.36 8.280000000000003 L 37.36 3.552713678800501e-15 L 40.92 3.552713678800501e-15 L 40.92 11.420000000000003 L 39.34 11.600000000000003 C 34.86 12.110000000000003 30.6 13.350000000000003 26.680000000000003 15.210000000000003 C 23.230000000000004 16.840000000000003 20.050000000000004 18.950000000000003 17.220000000000002 21.450000000000003 L 19.360000000000003 23.380000000000003 C 26.020000000000003 18.14 34.190000000000005 15.180000000000003 42.370000000000005 14.920000000000002 C 50.68000000000001 14.660000000000002 59 17.18 65.75 22.94 L 67.14 24.130000000000003 L 65.91 25.480000000000004 C 64.95 26.540000000000003 64.22 27.360000000000003 63.489999999999995 28.180000000000003 C 62.589999999999996 29.200000000000003 61.67999999999999 30.220000000000002 61.03999999999999 30.92 L 59.88999999999999 32.18 L 58.57999999999999 31.08 C 56.54999999999999 29.369999999999997 53.56999999999999 27.959999999999997 50.22999999999999 27.07 C 46.56999999999999 26.09 42.52999999999999 25.740000000000002 38.87999999999999 26.27 C 35.37999999999999 26.78 32.26999999999999 28.1 30.279999999999987 30.47 C 29.399999999999988 31.509999999999998 28.729999999999986 32.769999999999996 28.329999999999988 34.269999999999996 C 27.409999999999986 37.72 28.959999999999987 40.419999999999995 31.759999999999987 42.73 C 34.91999999999999 45.349999999999994 39.62999999999999 47.55 44.329999999999984 49.75 C 49.259999999999984 52.05 54.179999999999986 54.36 57.65999999999998 57.24 C 61.509999999999984 60.43 63.61999999999998 64.26 62.259999999999984 69.36 C 61.719999999999985 71.39 60.79999999999998 73.1 59.58999999999998 74.53999999999999 C 56.97999999999998 77.63 53.08999999999998 79.33 48.78999999999998 79.96 C 44.64999999999998 80.57 40.09999999999998 80.17999999999999 36.00999999999998 79.08 C 32.85999999999998 78.24 29.949999999999978 76.96 27.659999999999975 75.39 C 27.179999999999975 75.92 26.759999999999977 76.4 26.329999999999977 76.89 C 25.92999999999998 77.34 25.51999999999998 77.8 25.139999999999976 78.23 C 30.909999999999975 82.57000000000001 37.78999999999998 84.48 44.67999999999998 84.26 C 52.55999999999998 84.01 60.449999999999974 80.99000000000001 66.69999999999997 75.66000000000001 L 67.88999999999997 74.65 L 75.15999999999997 81.21000000000001 L 73.79999999999997 82.53 C 70.35999999999997 85.87 66.36999999999998 88.65 61.98999999999997 90.73 C 58.18999999999997 92.53 54.08999999999997 93.8 49.789999999999964 94.45 L 49.789999999999964 102.73 L 46.22999999999996 102.73 z M 54.92 38.72 C 49.11 34.5 44.04 33.68 40.96 34.6 C 40 34.89 39.28 35.33 38.88 35.870000000000005 C 38.56 36.300000000000004 38.440000000000005 36.82000000000001 38.56 37.38 C 38.89 38.88 40.63 40.650000000000006 44.260000000000005 42.24 C 44.81 42.480000000000004 45.540000000000006 42.79 46.28000000000001 43.11 C 47.28000000000001 43.54 48.32000000000001 43.98 49.53000000000001 44.519999999999996 C 53.67000000000001 46.37 58.09000000000001 48.61 61.80000000000001 51.83 C 64.52000000000001 54.19 66.84000000000002 57.06 68.38000000000001 60.64 C 69.50000000000001 57.33 70.06000000000002 53.66 69.98 50.04 C 69.87 45.2 68.61 40.47 66 36.83 L 65.12 35.61 L 72.91000000000001 27.79 L 74.12 29.54 C 78.52000000000001 35.87 80.76 43.26 80.82000000000001 50.67 C 80.88000000000001 57.58 79.04 64.5 75.31 70.61 L 77.4 72.51 C 79.22 69.62 80.68 66.49000000000001 81.73 63.160000000000004 C 82.94 59.32000000000001 83.59 55.230000000000004 83.59 50.99 C 83.59 45.6 82.54 40.47 80.63000000000001 35.78 C 78.65 30.91 75.75000000000001 26.51 72.14000000000001 22.810000000000002 C 68.98000000000002 19.730000000000004 65.31000000000002 17.17 61.280000000000015 15.250000000000004 C 57.350000000000016 13.380000000000003 53.08000000000001 12.130000000000003 48.58000000000001 11.620000000000005 L 47.000000000000014 11.440000000000005 L 47.000000000000014 0.020000000000004903 L 50.56000000000002 0.020000000000004903 L 50.56000000000002 8.300000000000004 C 54.88000000000002 8.950000000000005 58.990000000000016 10.230000000000004 62.80000000000002 12.040000000000004 C 67.20000000000002 14.130000000000004 71.19000000000003 16.930000000000003 74.64000000000001 20.290000000000006 L 74.67000000000002 20.320000000000007 C 78.61000000000001 24.360000000000007 81.77000000000001 29.150000000000006 83.93000000000002 34.45000000000001 C 86.01000000000002 39.56000000000001 87.15000000000002 45.150000000000006 87.15000000000002 51.000000000000014 C 87.15000000000002 55.610000000000014 86.44000000000003 60.06000000000002 85.12000000000002 64.24000000000001 C 83.76000000000002 68.56 81.74000000000002 72.60000000000001 79.18000000000002 76.24000000000001 L 78.02000000000002 77.89000000000001 L 70.68000000000002 71.21000000000001 L 71.53000000000002 69.94000000000001 C 75.42000000000002 64.13000000000001 77.33000000000001 57.41000000000001 77.27000000000001 50.71000000000001 C 77.22000000000001 44.70000000000001 75.58000000000001 38.70000000000001 72.36000000000001 33.38000000000001 L 69.71000000000001 36.040000000000006 C 72.2 40.080000000000005 73.41000000000001 45.00000000000001 73.52000000000001 49.99000000000001 C 73.65 55.84000000000001 72.26 61.82000000000001 69.65 66.57000000000001 L 67.32000000000001 70.81 L 66.35000000000001 66.07000000000001 C 65.33000000000001 61.06000000000001 62.73000000000001 57.38000000000001 59.45000000000001 54.53000000000001 C 56.07000000000001 51.60000000000001 51.95000000000001 49.510000000000005 48.06000000000001 47.77000000000001 C 47.07000000000001 47.33000000000001 45.95000000000001 46.85000000000001 44.86000000000001 46.38000000000001 C 44.21000000000001 46.10000000000001 43.57000000000001 45.83000000000001 42.81000000000001 45.50000000000001 C 37.99000000000001 43.39000000000001 35.60000000000001 40.66000000000001 35.05000000000001 38.14000000000001 C 34.70000000000001 36.53000000000001 35.06000000000001 35.02000000000001 36.01000000000001 33.760000000000005 C 36.87000000000001 32.61000000000001 38.22000000000001 31.720000000000006 39.930000000000014 31.210000000000004 C 43.890000000000015 30.040000000000006 50.15000000000001 30.910000000000004 56.98000000000002 35.86000000000001 L 54.890000000000015 38.74000000000001 z M 32.25 64.00999999999999 C 38.06 68.22999999999999 43.13 69.05 46.21 68.13 C 47.17 67.83999999999999 47.89 67.39999999999999 48.29 66.86 C 48.61 66.42999999999999 48.73 65.91 48.61 65.35 C 48.28 63.849999999999994 46.54 62.07999999999999 42.91 60.489999999999995 C 42.36 60.24999999999999 41.629999999999995 59.94 40.88999999999999 59.62 C 39.88999999999999 59.19 38.849999999999994 58.75 37.63999999999999 58.21 C 33.49999999999999 56.36 29.07999999999999 54.120000000000005 25.369999999999994 50.9 C 22.649999999999995 48.54 20.329999999999995 45.67 18.789999999999992 42.089999999999996 C 17.66999999999999 45.4 17.109999999999992 49.06999999999999 17.18999999999999 52.69 C 17.29999999999999 57.53 18.55999999999999 62.26 21.16999999999999 65.9 L 22.04999999999999 67.12 L 14.259999999999991 74.94 L 13.04999999999999 73.19 C 8.64999999999999 66.86 6.40999999999999 59.47 6.34999999999999 52.06 C 6.28999999999999 45.150000000000006 8.12999999999999 38.230000000000004 11.859999999999989 32.120000000000005 L 9.769999999999989 30.220000000000006 C 7.949999999999989 33.11000000000001 6.4899999999999896 36.24000000000001 5.439999999999989 39.57000000000001 C 4.229999999999989 43.41000000000001 3.5799999999999885 47.50000000000001 3.5799999999999885 51.74000000000001 C 3.5799999999999885 57.13000000000001 4.629999999999988 62.260000000000005 6.5399999999999885 66.95000000000002 C 8.519999999999989 71.82000000000002 11.419999999999987 76.22000000000001 15.029999999999989 79.92000000000002 C 18.18999999999999 83.00000000000001 21.85999999999999 85.56000000000002 25.889999999999986 87.48000000000002 C 29.819999999999986 89.35000000000002 34.08999999999999 90.60000000000002 38.58999999999999 91.11000000000001 L 40.16999999999999 91.29000000000002 L 40.16999999999999 102.71000000000002 L 36.609999999999985 102.71000000000002 L 36.609999999999985 94.43000000000002 C 32.289999999999985 93.78000000000002 28.179999999999986 92.50000000000001 24.369999999999983 90.69000000000003 C 19.969999999999985 88.60000000000002 15.979999999999983 85.80000000000003 12.529999999999983 82.44000000000003 L 12.499999999999984 82.41000000000003 C 8.559999999999985 78.37000000000002 5.399999999999984 73.58000000000003 3.2399999999999842 68.28000000000003 C 1.1599999999999842 63.17000000000003 0.01999999999998403 57.58000000000003 0.01999999999998403 51.73000000000003 C 0.01999999999998403 47.12000000000003 0.729999999999984 42.67000000000003 2.049999999999984 38.49000000000003 C 3.409999999999984 34.17000000000003 5.429999999999984 30.13000000000003 7.989999999999984 26.49000000000003 L 9.149999999999984 24.840000000000032 L 16.489999999999984 31.52000000000003 L 15.639999999999985 32.790000000000035 C 11.749999999999984 38.60000000000004 9.839999999999986 45.320000000000036 9.899999999999984 52.02000000000004 C 9.949999999999985 58.03000000000004 11.589999999999984 64.03000000000004 14.809999999999985 69.35000000000004 L 17.459999999999983 66.69000000000004 C 14.969999999999983 62.65000000000004 13.759999999999984 57.73000000000004 13.649999999999983 52.74000000000004 C 13.519999999999982 46.890000000000036 14.909999999999982 40.91000000000004 17.519999999999982 36.16000000000004 L 19.84999999999998 31.920000000000037 L 20.81999999999998 36.66000000000004 C 21.83999999999998 41.67000000000004 24.43999999999998 45.35000000000004 27.719999999999978 48.20000000000004 C 31.099999999999977 51.13000000000004 35.21999999999998 53.22000000000004 39.10999999999998 54.960000000000036 C 40.09999999999998 55.400000000000034 41.21999999999998 55.88000000000004 42.30999999999998 56.35000000000004 C 42.95999999999998 56.63000000000004 43.59999999999998 56.900000000000034 44.35999999999998 57.23000000000004 C 49.17999999999998 59.34000000000004 51.56999999999998 62.070000000000036 52.119999999999976 64.59000000000005 C 52.46999999999998 66.20000000000005 52.10999999999998 67.71000000000005 51.159999999999975 68.97000000000004 C 50.299999999999976 70.12000000000005 48.949999999999974 71.01000000000005 47.239999999999974 71.52000000000004 C 43.27999999999997 72.69000000000004 37.019999999999975 71.82000000000004 30.189999999999973 66.87000000000003 L 32.27999999999997 63.99000000000003 z" stroke-linecap="round" />
</g>
</g>
</g>
<g transform="matrix(1.9211538461538462 0 0 1.9211538461538462 784.1871840822193 477.42339975998806)" id="text-logo-path-group"  >
<g style=""  paint-order="stroke"   >
		<g transform="matrix(1 0 0 1 5.684342e-14 -2.842171e-14)" id="text-logo-path-0"  >
<path style="stroke: none; stroke-width: 0; stroke-dasharray: none; stroke-linecap: butt; stroke-dashoffset: 0; stroke-linejoin: miter; stroke-miterlimit: 4; fill: rgb(255,255,255); fill-rule: nonzero; opacity: 1;"  paint-order="stroke"  transform=" translate(-231.42499999999998, 16.400000000000002)" d="M 3.91 -32.98 L 13.52 -32.98 Q 17.8 -32.98 20.36 -31.39 Q 22.91 -29.81 23.94 -27.51 Q 24.98 -25.21 24.98 -22.77 L 24.98 -22.77 Q 24.98 -20.01 23.74 -17.78 Q 22.49 -15.55 19.94 -14.21 Q 17.39 -12.88 13.62 -12.88 L 13.62 -12.88 L 7.77 -12.88 L 7.77 0 L 3.91 0 L 3.91 -32.98 Z M 14.26 -16.28 Q 17.85 -16.28 19.5 -18.01 Q 21.16 -19.73 21.16 -22.77 L 21.16 -22.77 Q 21.16 -26.86 18.86 -28.18 Q 16.56 -29.49 13.52 -29.49 L 13.52 -29.49 L 7.77 -29.49 L 7.77 -16.28 L 14.26 -16.28 Z M 31.65 -32.8 L 43.42 -32.8 Q 45.86 -32.8 48 -31.67 Q 50.14 -30.54 51.45 -28.52 Q 52.76 -26.5 52.76 -23.97 L 52.76 -23.97 Q 52.76 -20.84 50.76 -18.31 Q 48.76 -15.78 45.72 -15 L 45.72 -15 L 46.41 -13.89 L 55.11 -0.64 L 55.11 0 L 51.24 0 L 41.81 -14.44 L 35.42 -14.44 L 35.42 0 L 31.65 0 L 31.65 -32.8 Z M 42.92 -17.85 Q 44.16 -17.85 45.56 -18.56 Q 46.97 -19.27 47.93 -20.68 Q 48.9 -22.08 48.9 -23.97 L 48.9 -23.97 Q 48.9 -26.13 47.29 -27.71 Q 45.68 -29.3 43.1 -29.3 L 43.1 -29.3 L 35.42 -29.3 L 35.42 -17.85 L 42.92 -17.85 Z M 74.84 0.55 Q 69.97 0.55 66.31 -1.7 Q 62.65 -3.96 60.72 -7.82 Q 58.79 -11.68 58.79 -16.38 L 58.79 -16.38 Q 58.79 -21.07 60.74 -24.95 Q 62.7 -28.84 66.36 -31.1 Q 70.01 -33.35 74.84 -33.35 L 74.84 -33.35 Q 79.72 -33.35 83.4 -31.07 Q 87.08 -28.8 89.06 -24.93 Q 91.03 -21.07 91.03 -16.38 L 91.03 -16.38 Q 91.03 -11.68 89.08 -7.82 Q 87.12 -3.96 83.44 -1.7 Q 79.76 0.55 74.84 0.55 L 74.84 0.55 L 74.84 0.55 Z M 74.89 -2.94 Q 78.89 -2.94 81.65 -4.81 Q 84.41 -6.67 85.79 -9.75 Q 87.17 -12.83 87.17 -16.42 L 87.17 -16.42 Q 87.17 -20.01 85.81 -23.07 Q 84.46 -26.13 81.67 -27.99 Q 78.89 -29.85 74.89 -29.85 L 74.89 -29.85 Q 70.89 -29.85 68.13 -27.99 Q 65.37 -26.13 64.01 -23.07 Q 62.65 -20.01 62.65 -16.42 L 62.65 -16.42 Q 62.65 -12.83 64.01 -9.75 Q 65.37 -6.67 68.13 -4.81 Q 70.89 -2.94 74.89 -2.94 L 74.89 -2.94 L 74.89 -2.94 Z M 100.56 0.09 L 100.56 -32.8 L 96.78 -32.8 L 96.78 0.09 L 100.56 0.09 Z M 119.88 -9.15 Q 119.88 -12.24 118.31 -14.28 Q 116.75 -16.33 113.94 -17.25 L 113.94 -17.25 Q 116.06 -18.22 117.19 -20.06 Q 118.31 -21.9 118.31 -24.38 L 118.31 -24.38 Q 118.31 -28.38 115.48 -30.59 Q 112.65 -32.8 108.28 -32.8 L 108.28 -32.8 L 98.62 -32.8 L 98.62 -29.3 L 108.05 -29.3 Q 111.04 -29.3 112.68 -27.95 Q 114.31 -26.59 114.31 -24.15 L 114.31 -24.15 Q 114.31 -21.57 112.68 -20.13 Q 111.04 -18.68 108.28 -18.68 L 108.28 -18.68 L 98.62 -18.68 L 98.62 -15.18 L 108.79 -15.18 Q 112.15 -15.18 114.03 -13.57 Q 115.92 -11.96 115.92 -9.15 L 115.92 -9.15 Q 115.92 -6.3 113.97 -4.85 Q 112.01 -3.4 108.84 -3.4 L 108.84 -3.4 L 98.44 -3.4 L 98.44 0.09 L 109.02 0.09 Q 113.9 0.09 116.89 -2.3 Q 119.88 -4.69 119.88 -9.15 L 119.88 -9.15 L 119.88 -9.15 Z M 146.56 0 L 134.27 -32.84 L 138.09 -32.84 L 150.79 0 L 146.56 0 Z M 121.95 0 L 134.27 -32.84 L 138.05 -32.84 L 126.09 0 L 121.95 0 Z M 127.1 -9.15 L 128.02 -12.33 L 144.44 -12.33 L 145.45 -9.15 L 127.1 -9.15 Z M 158.47 0.09 L 158.47 -32.8 L 154.7 -32.8 L 154.7 0.09 L 158.47 0.09 Z M 177.79 -9.15 Q 177.79 -12.24 176.23 -14.28 Q 174.66 -16.33 171.86 -17.25 L 171.86 -17.25 Q 173.97 -18.22 175.1 -20.06 Q 176.23 -21.9 176.23 -24.38 L 176.23 -24.38 Q 176.23 -28.38 173.4 -30.59 Q 170.57 -32.8 166.2 -32.8 L 166.2 -32.8 L 156.54 -32.8 L 156.54 -29.3 L 165.97 -29.3 Q 168.96 -29.3 170.59 -27.95 Q 172.22 -26.59 172.22 -24.15 L 172.22 -24.15 Q 172.22 -21.57 170.59 -20.13 Q 168.96 -18.68 166.2 -18.68 L 166.2 -18.68 L 156.54 -18.68 L 156.54 -15.18 L 166.7 -15.18 Q 170.06 -15.18 171.95 -13.57 Q 173.83 -11.96 173.83 -9.15 L 173.83 -9.15 Q 173.83 -6.3 171.88 -4.85 Q 169.92 -3.4 166.75 -3.4 L 166.75 -3.4 L 156.35 -3.4 L 156.35 0.09 L 166.93 0.09 Q 171.81 0.09 174.8 -2.3 Q 177.79 -4.69 177.79 -9.15 L 177.79 -9.15 L 177.79 -9.15 Z M 183.77 0 L 183.77 -32.8 L 187.54 -32.8 L 187.54 0 L 183.77 0 Z M 195.36 0 L 195.36 -32.8 L 199.18 -32.8 L 199.13 -3.4 L 215.83 -3.4 L 215.83 0 L 195.36 0 Z M 221.12 0 L 221.12 -32.8 L 224.89 -32.8 L 224.89 0 L 221.12 0 Z M 239.89 0 L 239.89 -29.3 L 229.72 -29.3 L 229.72 -32.8 L 253.28 -32.8 L 253.28 -29.3 L 243.66 -29.3 L 243.66 0 L 239.89 0 Z M 268.27 -16.56 L 258.11 -32.8 L 253.74 -32.8 L 266.2 -13.48 L 270.02 -13.48 L 282.44 -32.8 L 278.39 -32.8 L 268.27 -16.56 Z M 269.97 0 L 270.02 -15 L 266.2 -15 L 266.2 0 L 269.97 0 Z M 305.03 0 L 305.03 -29.3 L 294.86 -29.3 L 294.86 -32.8 L 318.41 -32.8 L 318.41 -29.3 L 308.8 -29.3 L 308.8 0 L 305.03 0 Z M 323.24 -32.8 L 335.02 -32.8 Q 337.46 -32.8 339.59 -31.67 Q 341.73 -30.54 343.05 -28.52 Q 344.36 -26.5 344.36 -23.97 L 344.36 -23.97 Q 344.36 -20.84 342.36 -18.31 Q 340.35 -15.78 337.32 -15 L 337.32 -15 L 338.01 -13.89 L 346.7 -0.64 L 346.7 0 L 342.84 0 L 333.41 -14.44 L 327.01 -14.44 L 327.01 0 L 323.24 0 L 323.24 -32.8 Z M 334.51 -17.85 Q 335.75 -17.85 337.16 -18.56 Q 338.56 -19.27 339.53 -20.68 Q 340.49 -22.08 340.49 -23.97 L 340.49 -23.97 Q 340.49 -26.13 338.88 -27.71 Q 337.27 -29.3 334.7 -29.3 L 334.7 -29.3 L 327.01 -29.3 L 327.01 -17.85 L 334.51 -17.85 Z M 373.15 0 L 360.87 -32.84 L 364.69 -32.84 L 377.38 0 L 373.15 0 Z M 348.54 0 L 360.87 -32.84 L 364.64 -32.84 L 352.68 0 L 348.54 0 Z M 353.69 -9.15 L 354.61 -12.33 L 371.04 -12.33 L 372.05 -9.15 L 353.69 -9.15 Z M 381.29 -32.75 L 391.23 -32.8 Q 395.74 -32.8 399.46 -30.75 Q 403.19 -28.7 405.33 -24.93 Q 407.47 -21.16 407.47 -16.28 L 407.47 -16.28 Q 407.47 -11.32 405.33 -7.64 Q 403.19 -3.96 399.49 -1.98 Q 395.78 0 391.23 0 L 391.23 0 L 381.29 0 L 381.29 -32.75 Z M 391.28 -3.4 Q 394.73 -3.4 397.51 -4.99 Q 400.29 -6.58 401.92 -9.52 Q 403.56 -12.47 403.56 -16.28 L 403.56 -16.28 Q 403.56 -20.06 401.92 -23.02 Q 400.29 -25.99 397.49 -27.67 Q 394.68 -29.35 391.28 -29.35 L 391.28 -29.35 L 385.07 -29.3 L 385.07 -3.45 L 391.28 -3.4 Z M 413.22 0 L 413.22 -32.8 L 433.55 -32.8 L 433.55 -29.3 L 416.99 -29.3 L 416.99 -18.91 L 428.95 -18.91 L 428.95 -15.41 L 416.99 -15.41 L 416.99 -3.5 L 433.96 -3.5 L 433.96 0 L 413.22 0 Z M 437.87 -6.16 Q 439.35 -4.83 441.76 -3.89 Q 444.18 -2.94 447.17 -2.94 L 447.17 -2.94 Q 451.21 -2.94 453.19 -4.46 Q 455.17 -5.98 455.17 -8.6 L 455.17 -8.6 Q 455.17 -10.12 454.41 -11.2 Q 453.65 -12.28 451.83 -13.2 Q 450.02 -14.12 446.61 -15.13 L 446.61 -15.13 Q 442.75 -16.33 440.43 -17.57 Q 438.1 -18.81 436.98 -20.49 Q 435.85 -22.17 435.85 -24.61 L 435.85 -24.61 Q 435.85 -28.61 438.93 -30.98 Q 442.01 -33.35 447.35 -33.35 L 447.35 -33.35 Q 451.08 -33.35 453.84 -32.41 Q 456.6 -31.46 458.02 -30.13 L 458.02 -30.13 L 455.95 -27 Q 454.62 -28.2 452.39 -29.03 Q 450.16 -29.85 447.35 -29.85 L 447.35 -29.85 Q 443.95 -29.85 441.78 -28.45 Q 439.62 -27.05 439.62 -24.61 L 439.62 -24.61 Q 439.62 -23.28 440.43 -22.31 Q 441.23 -21.34 443.07 -20.49 Q 444.91 -19.64 448.27 -18.68 L 448.27 -18.68 Q 452.36 -17.53 454.69 -16.12 Q 457.01 -14.72 457.98 -12.93 Q 458.94 -11.13 458.94 -8.65 L 458.94 -8.65 Q 458.94 -5.98 457.61 -3.91 Q 456.27 -1.84 453.65 -0.64 Q 451.03 0.55 447.21 0.55 L 447.21 0.55 Q 443.39 0.55 440.43 -0.55 Q 437.46 -1.66 435.8 -3.27 L 435.8 -3.27 L 437.87 -6.16 L 437.87 -6.16 Z" stroke-linecap="round" />
</g>
</g>
</g>
<g transform="matrix(1.9211538461538462 0 0 1.9211538461538462 780.2334494668349 554.4029304532183)" id="tagline-bc5a5d1f-7ddc-467e-8c53-43e7d8c057f5-logo-path-group"  >
<g style=""  paint-order="stroke"   >
		<g transform="matrix(1 0 0 1 0 0)" id="tagline-bc5a5d1f-7ddc-467e-8c53-43e7d8c057f5-logo-path-0"  >
<path style="stroke: none; stroke-width: 0; stroke-dasharray: none; stroke-linecap: butt; stroke-dashoffset: 0; stroke-linejoin: miter; stroke-miterlimit: 4; fill: rgb(255,255,255); fill-rule: nonzero; opacity: 1;"  paint-order="stroke"  transform=" translate(-91.96999999999998, 8.555)" d="M 1.32 -3.22 Q 2.09 -2.52 3.35 -2.03 Q 4.61 -1.54 6.17 -1.54 L 6.17 -1.54 Q 8.28 -1.54 9.31 -2.33 Q 10.34 -3.12 10.34 -4.49 L 10.34 -4.49 Q 10.34 -5.28 9.95 -5.84 Q 9.55 -6.41 8.6 -6.89 Q 7.66 -7.37 5.88 -7.9 L 5.88 -7.9 Q 3.86 -8.52 2.65 -9.17 Q 1.44 -9.82 0.85 -10.69 Q 0.26 -11.57 0.26 -12.84 L 0.26 -12.84 Q 0.26 -14.93 1.87 -16.16 Q 3.48 -17.4 6.26 -17.4 L 6.26 -17.4 Q 8.21 -17.4 9.65 -16.91 Q 11.09 -16.42 11.83 -15.72 L 11.83 -15.72 L 10.75 -14.09 Q 10.06 -14.71 8.89 -15.14 Q 7.73 -15.58 6.26 -15.58 L 6.26 -15.58 Q 4.49 -15.58 3.36 -14.84 Q 2.23 -14.11 2.23 -12.84 L 2.23 -12.84 Q 2.23 -12.14 2.65 -11.64 Q 3.07 -11.14 4.03 -10.69 Q 4.99 -10.25 6.74 -9.74 L 6.74 -9.74 Q 8.88 -9.14 10.09 -8.41 Q 11.3 -7.68 11.81 -6.74 Q 12.31 -5.81 12.31 -4.51 L 12.31 -4.51 Q 12.31 -3.12 11.62 -2.04 Q 10.92 -0.96 9.55 -0.34 Q 8.18 0.29 6.19 0.29 L 6.19 0.29 Q 4.2 0.29 2.65 -0.29 Q 1.1 -0.86 0.24 -1.7 L 0.24 -1.7 L 1.32 -3.22 L 1.32 -3.22 Z M 16.46 0 L 16.44 -17.11 L 14.59 -17.11 L 14.59 0 L 16.46 0 Z M 30.48 -17.11 L 28.61 -17.11 L 28.61 0 L 30.48 0 L 30.48 -17.11 Z M 30.19 -15.74 L 29.54 -17.11 L 28.61 -17.11 L 22.54 -8.71 L 16.44 -17.11 L 15.48 -17.11 L 14.81 -15.82 L 22.03 -6.34 L 23.02 -6.34 L 30.19 -15.74 Z M 45.36 0 L 38.95 -17.14 L 40.94 -17.14 L 47.57 0 L 45.36 0 Z M 32.52 0 L 38.95 -17.14 L 40.92 -17.14 L 34.68 0 L 32.52 0 Z M 35.21 -4.78 L 35.69 -6.43 L 44.26 -6.43 L 44.78 -4.78 L 35.21 -4.78 Z M 49.61 -17.11 L 55.75 -17.11 Q 57.02 -17.11 58.14 -16.52 Q 59.26 -15.94 59.94 -14.88 Q 60.62 -13.82 60.62 -12.5 L 60.62 -12.5 Q 60.62 -10.87 59.58 -9.55 Q 58.54 -8.23 56.95 -7.82 L 56.95 -7.82 L 57.31 -7.25 L 61.85 -0.34 L 61.85 0 L 59.83 0 L 54.91 -7.54 L 51.58 -7.54 L 51.58 0 L 49.61 0 L 49.61 -17.11 Z M 55.49 -9.31 Q 56.14 -9.31 56.87 -9.68 Q 57.6 -10.06 58.1 -10.79 Q 58.61 -11.52 58.61 -12.5 L 58.61 -12.5 Q 58.61 -13.63 57.77 -14.46 Q 56.93 -15.29 55.58 -15.29 L 55.58 -15.29 L 51.58 -15.29 L 51.58 -9.31 L 55.49 -9.31 Z M 68.59 0 L 68.59 -15.29 L 63.29 -15.29 L 63.29 -17.11 L 75.58 -17.11 L 75.58 -15.29 L 70.56 -15.29 L 70.56 0 L 68.59 0 Z M 88.08 0 L 88.08 -15.29 L 82.78 -15.29 L 82.78 -17.11 L 95.06 -17.11 L 95.06 -15.29 L 90.05 -15.29 L 90.05 0 L 88.08 0 Z M 97.58 -17.11 L 103.73 -17.11 Q 105 -17.11 106.12 -16.52 Q 107.23 -15.94 107.92 -14.88 Q 108.6 -13.82 108.6 -12.5 L 108.6 -12.5 Q 108.6 -10.87 107.56 -9.55 Q 106.51 -8.23 104.93 -7.82 L 104.93 -7.82 L 105.29 -7.25 L 109.82 -0.34 L 109.82 0 L 107.81 0 L 102.89 -7.54 L 99.55 -7.54 L 99.55 0 L 97.58 0 L 97.58 -17.11 Z M 103.46 -9.31 Q 104.11 -9.31 104.84 -9.68 Q 105.58 -10.06 106.08 -10.79 Q 106.58 -11.52 106.58 -12.5 L 106.58 -12.5 Q 106.58 -13.63 105.74 -14.46 Q 104.9 -15.29 103.56 -15.29 L 103.56 -15.29 L 99.55 -15.29 L 99.55 -9.31 L 103.46 -9.31 Z M 123.62 0 L 117.22 -17.14 L 119.21 -17.14 L 125.83 0 L 123.62 0 Z M 110.78 0 L 117.22 -17.14 L 119.18 -17.14 L 112.94 0 L 110.78 0 Z M 113.47 -4.78 L 113.95 -6.43 L 122.52 -6.43 L 123.05 -4.78 L 113.47 -4.78 Z M 127.87 -17.09 L 133.06 -17.11 Q 135.41 -17.11 137.35 -16.04 Q 139.3 -14.98 140.41 -13.01 Q 141.53 -11.04 141.53 -8.5 L 141.53 -8.5 Q 141.53 -5.9 140.41 -3.98 Q 139.3 -2.06 137.36 -1.03 Q 135.43 0 133.06 0 L 133.06 0 L 127.87 0 L 127.87 -17.09 Z M 133.08 -1.78 Q 134.88 -1.78 136.33 -2.6 Q 137.78 -3.43 138.64 -4.97 Q 139.49 -6.5 139.49 -8.5 L 139.49 -8.5 Q 139.49 -10.46 138.64 -12.01 Q 137.78 -13.56 136.32 -14.44 Q 134.86 -15.31 133.08 -15.31 L 133.08 -15.31 L 129.84 -15.29 L 129.84 -1.8 L 133.08 -1.78 Z M 144.53 0 L 144.53 -17.11 L 146.5 -17.11 L 146.5 0 L 144.53 0 Z M 162 0 L 151.25 -16.06 L 151.85 -17.11 L 152.69 -17.11 L 164.02 -0.43 L 162.96 0 L 162 0 Z M 150.58 0 L 150.58 -17.11 L 152.5 -17.11 L 152.5 0 L 150.58 0 Z M 162.31 0 L 162.31 -17.11 L 164.23 -17.11 L 164.23 0 L 162.31 0 Z M 175.61 0.29 Q 173.21 0.29 171.3 -0.89 Q 169.39 -2.06 168.31 -4.08 Q 167.23 -6.1 167.23 -8.52 L 167.23 -8.52 Q 167.23 -10.97 168.28 -13 Q 169.32 -15.02 171.23 -16.21 Q 173.14 -17.4 175.61 -17.4 L 175.61 -17.4 Q 179.57 -17.4 182.35 -14.09 L 182.35 -14.09 L 182.69 -13.63 L 181.18 -12.5 L 180.89 -12.89 Q 178.78 -15.55 175.56 -15.55 L 175.56 -15.55 Q 173.54 -15.55 172.1 -14.57 Q 170.66 -13.58 169.93 -11.99 Q 169.2 -10.39 169.2 -8.54 L 169.2 -8.54 Q 169.2 -6.67 169.91 -5.08 Q 170.62 -3.48 172.07 -2.51 Q 173.52 -1.54 175.61 -1.54 L 175.61 -1.54 Q 178.22 -1.54 179.74 -3.05 Q 181.25 -4.56 181.63 -7.01 L 181.63 -7.01 L 174.84 -7.01 L 174.84 -8.88 L 183.67 -8.88 Q 183.7 -8.62 183.7 -8.11 L 183.7 -8.11 Q 183.7 -5.42 182.56 -3.52 Q 181.42 -1.61 179.57 -0.66 Q 177.72 0.29 175.61 0.29 L 175.61 0.29 L 175.61 0.29 Z" stroke-linecap="round" />
</g>
</g>
</g>
</svg>