<?xml version="1.0" encoding="UTF-8" standalone="no" ?>
<!DOCTYPE svg PUBLIC "-//W3C//DTD SVG 1.1//EN" "http://www.w3.org/Graphics/SVG/1.1/DTD/svg11.dtd">
<svg xmlns="http://www.w3.org/2000/svg" xmlns:xlink="http://www.w3.org/1999/xlink" version="1.1" width="1280" height="1024" viewBox="0 0 1280 1024" xml:space="preserve">
<desc>Created with Fabric.js 4.4.0</desc>
<defs>
</defs>
<g transform="matrix(1 0 0 1 640 512)" id="background-logo"  >
<rect style="stroke: none; stroke-width: 0; stroke-dasharray: none; stroke-linecap: butt; stroke-dashoffset: 0; stroke-linejoin: miter; stroke-miterlimit: 4; fill: rgb(0,0,0); fill-rule: nonzero; opacity: 1;"  paint-order="stroke"  x="-640" y="-512" rx="0" ry="0" width="1280" height="1024" />
</g>
<g transform="matrix(1.1397199038295627 0 0 1.1397199038295627 141.22754589963284 512.3668298653611)" id="logo-logo"  >
<g style=""  paint-order="stroke"   >
		<g transform="matrix(2.1780150595615053 0 0 2.1780150595615053 0 0)"  >
<linearGradient id="SVGID_1_2_2_2_2_2_2_2_2_2_2_2_81639" gradientUnits="userSpaceOnUse" gradientTransform="matrix(1 0 0 1 0 0)"  x1="0" y1="51.37" x2="87.16" y2="51.37">
<stop offset="0%" style="stop-color:rgb(168,118,61);stop-opacity: 1"/>
<stop offset="25.098%" style="stop-color:rgb(240,192,100);stop-opacity: 1"/>
<stop offset="50.1961%" style="stop-color:rgb(240,222,120);stop-opacity: 1"/>
<stop offset="74.902%" style="stop-color:rgb(168,118,61);stop-opacity: 1"/>
<stop offset="100%" style="stop-color:rgb(240,192,100);stop-opacity: 1"/>
</linearGradient>
<path style="stroke: none; stroke-width: 1; stroke-dasharray: none; stroke-linecap: butt; stroke-dashoffset: 0; stroke-linejoin: miter; stroke-miterlimit: 4; fill: url(#SVGID_1_2_2_2_2_2_2_2_2_2_2_2_81639); fill-rule: nonzero; opacity: 1;"  paint-order="stroke"  transform=" translate(-43.585, -51.36500000000001)" d="M 46.24 102.73 L 46.24 91.31 L 47.82 91.13 C 52.3 90.61999999999999 56.56 89.38 60.480000000000004 87.52 C 63.93000000000001 85.89 67.11 83.78 69.94 81.28 L 67.8 79.35 C 61.14 84.58999999999999 52.97 87.55 44.78999999999999 87.81 C 36.47999999999999 88.07000000000001 28.159999999999993 85.55 21.409999999999993 79.79 L 20.019999999999992 78.60000000000001 L 21.249999999999993 77.25000000000001 C 22.209999999999994 76.19000000000001 22.939999999999994 75.37000000000002 23.669999999999995 74.55000000000001 C 24.569999999999993 73.53000000000002 25.479999999999993 72.51 26.119999999999994 71.81000000000002 L 27.269999999999992 70.55000000000001 L 28.57999999999999 71.65 C 30.609999999999992 73.36 33.58999999999999 74.77000000000001 36.92999999999999 75.66000000000001 C 40.58999999999999 76.64000000000001 44.629999999999995 76.99000000000001 48.279999999999994 76.46000000000001 C 51.779999999999994 75.95 54.88999999999999 74.63000000000001 56.879999999999995 72.26 C 57.76 71.22 58.42999999999999 69.96000000000001 58.83 68.46000000000001 C 59.75 65.01 58.199999999999996 62.31000000000001 55.4 60.00000000000001 C 52.239999999999995 57.38000000000001 47.53 55.18000000000001 42.83 52.980000000000004 C 37.91 50.68000000000001 32.98 48.370000000000005 29.5 45.49 C 25.65 42.300000000000004 23.54 38.47 24.9 33.370000000000005 C 25.439999999999998 31.340000000000003 26.36 29.630000000000003 27.57 28.190000000000005 C 30.18 25.100000000000005 34.07 23.400000000000006 38.370000000000005 22.770000000000003 C 42.510000000000005 22.160000000000004 47.06 22.550000000000004 51.150000000000006 23.650000000000002 C 54.300000000000004 24.490000000000002 57.21000000000001 25.770000000000003 59.50000000000001 27.340000000000003 C 59.980000000000004 26.810000000000002 60.400000000000006 26.330000000000002 60.830000000000005 25.840000000000003 C 61.230000000000004 25.380000000000003 61.64000000000001 24.930000000000003 62.010000000000005 24.500000000000004 C 56.24000000000001 20.160000000000004 49.36000000000001 18.250000000000004 42.470000000000006 18.470000000000002 C 34.59 18.720000000000002 26.700000000000006 21.740000000000002 20.450000000000006 27.07 L 19.260000000000005 28.080000000000002 L 11.990000000000006 21.520000000000003 L 13.350000000000005 20.200000000000003 C 16.790000000000006 16.860000000000003 20.780000000000005 14.080000000000002 25.160000000000004 12.000000000000004 C 28.960000000000004 10.200000000000003 33.06 8.930000000000003 37.36 8.280000000000003 L 37.36 3.552713678800501e-15 L 40.92 3.552713678800501e-15 L 40.92 11.420000000000003 L 39.34 11.600000000000003 C 34.86 12.110000000000003 30.6 13.350000000000003 26.680000000000003 15.210000000000003 C 23.230000000000004 16.840000000000003 20.050000000000004 18.950000000000003 17.220000000000002 21.450000000000003 L 19.360000000000003 23.380000000000003 C 26.020000000000003 18.14 34.190000000000005 15.180000000000003 42.370000000000005 14.920000000000002 C 50.68000000000001 14.660000000000002 59 17.18 65.75 22.94 L 67.14 24.130000000000003 L 65.91 25.480000000000004 C 64.95 26.540000000000003 64.22 27.360000000000003 63.489999999999995 28.180000000000003 C 62.589999999999996 29.200000000000003 61.67999999999999 30.220000000000002 61.03999999999999 30.92 L 59.88999999999999 32.18 L 58.57999999999999 31.08 C 56.54999999999999 29.369999999999997 53.56999999999999 27.959999999999997 50.22999999999999 27.07 C 46.56999999999999 26.09 42.52999999999999 25.740000000000002 38.87999999999999 26.27 C 35.37999999999999 26.78 32.26999999999999 28.1 30.279999999999987 30.47 C 29.399999999999988 31.509999999999998 28.729999999999986 32.769999999999996 28.329999999999988 34.269999999999996 C 27.409999999999986 37.72 28.959999999999987 40.419999999999995 31.759999999999987 42.73 C 34.91999999999999 45.349999999999994 39.62999999999999 47.55 44.329999999999984 49.75 C 49.259999999999984 52.05 54.179999999999986 54.36 57.65999999999998 57.24 C 61.509999999999984 60.43 63.61999999999998 64.26 62.259999999999984 69.36 C 61.719999999999985 71.39 60.79999999999998 73.1 59.58999999999998 74.53999999999999 C 56.97999999999998 77.63 53.08999999999998 79.33 48.78999999999998 79.96 C 44.64999999999998 80.57 40.09999999999998 80.17999999999999 36.00999999999998 79.08 C 32.85999999999998 78.24 29.949999999999978 76.96 27.659999999999975 75.39 C 27.179999999999975 75.92 26.759999999999977 76.4 26.329999999999977 76.89 C 25.92999999999998 77.34 25.51999999999998 77.8 25.139999999999976 78.23 C 30.909999999999975 82.57000000000001 37.78999999999998 84.48 44.67999999999998 84.26 C 52.55999999999998 84.01 60.449999999999974 80.99000000000001 66.69999999999997 75.66000000000001 L 67.88999999999997 74.65 L 75.15999999999997 81.21000000000001 L 73.79999999999997 82.53 C 70.35999999999997 85.87 66.36999999999998 88.65 61.98999999999997 90.73 C 58.18999999999997 92.53 54.08999999999997 93.8 49.789999999999964 94.45 L 49.789999999999964 102.73 L 46.22999999999996 102.73 z M 54.92 38.72 C 49.11 34.5 44.04 33.68 40.96 34.6 C 40 34.89 39.28 35.33 38.88 35.870000000000005 C 38.56 36.300000000000004 38.440000000000005 36.82000000000001 38.56 37.38 C 38.89 38.88 40.63 40.650000000000006 44.260000000000005 42.24 C 44.81 42.480000000000004 45.540000000000006 42.79 46.28000000000001 43.11 C 47.28000000000001 43.54 48.32000000000001 43.98 49.53000000000001 44.519999999999996 C 53.67000000000001 46.37 58.09000000000001 48.61 61.80000000000001 51.83 C 64.52000000000001 54.19 66.84000000000002 57.06 68.38000000000001 60.64 C 69.50000000000001 57.33 70.06000000000002 53.66 69.98 50.04 C 69.87 45.2 68.61 40.47 66 36.83 L 65.12 35.61 L 72.91000000000001 27.79 L 74.12 29.54 C 78.52000000000001 35.87 80.76 43.26 80.82000000000001 50.67 C 80.88000000000001 57.58 79.04 64.5 75.31 70.61 L 77.4 72.51 C 79.22 69.62 80.68 66.49000000000001 81.73 63.160000000000004 C 82.94 59.32000000000001 83.59 55.230000000000004 83.59 50.99 C 83.59 45.6 82.54 40.47 80.63000000000001 35.78 C 78.65 30.91 75.75000000000001 26.51 72.14000000000001 22.810000000000002 C 68.98000000000002 19.730000000000004 65.31000000000002 17.17 61.280000000000015 15.250000000000004 C 57.350000000000016 13.380000000000003 53.08000000000001 12.130000000000003 48.58000000000001 11.620000000000005 L 47.000000000000014 11.440000000000005 L 47.000000000000014 0.020000000000004903 L 50.56000000000002 0.020000000000004903 L 50.56000000000002 8.300000000000004 C 54.88000000000002 8.950000000000005 58.990000000000016 10.230000000000004 62.80000000000002 12.040000000000004 C 67.20000000000002 14.130000000000004 71.19000000000003 16.930000000000003 74.64000000000001 20.290000000000006 L 74.67000000000002 20.320000000000007 C 78.61000000000001 24.360000000000007 81.77000000000001 29.150000000000006 83.93000000000002 34.45000000000001 C 86.01000000000002 39.56000000000001 87.15000000000002 45.150000000000006 87.15000000000002 51.000000000000014 C 87.15000000000002 55.610000000000014 86.44000000000003 60.06000000000002 85.12000000000002 64.24000000000001 C 83.76000000000002 68.56 81.74000000000002 72.60000000000001 79.18000000000002 76.24000000000001 L 78.02000000000002 77.89000000000001 L 70.68000000000002 71.21000000000001 L 71.53000000000002 69.94000000000001 C 75.42000000000002 64.13000000000001 77.33000000000001 57.41000000000001 77.27000000000001 50.71000000000001 C 77.22000000000001 44.70000000000001 75.58000000000001 38.70000000000001 72.36000000000001 33.38000000000001 L 69.71000000000001 36.040000000000006 C 72.2 40.080000000000005 73.41000000000001 45.00000000000001 73.52000000000001 49.99000000000001 C 73.65 55.84000000000001 72.26 61.82000000000001 69.65 66.57000000000001 L 67.32000000000001 70.81 L 66.35000000000001 66.07000000000001 C 65.33000000000001 61.06000000000001 62.73000000000001 57.38000000000001 59.45000000000001 54.53000000000001 C 56.07000000000001 51.60000000000001 51.95000000000001 49.510000000000005 48.06000000000001 47.77000000000001 C 47.07000000000001 47.33000000000001 45.95000000000001 46.85000000000001 44.86000000000001 46.38000000000001 C 44.21000000000001 46.10000000000001 43.57000000000001 45.83000000000001 42.81000000000001 45.50000000000001 C 37.99000000000001 43.39000000000001 35.60000000000001 40.66000000000001 35.05000000000001 38.14000000000001 C 34.70000000000001 36.53000000000001 35.06000000000001 35.02000000000001 36.01000000000001 33.760000000000005 C 36.87000000000001 32.61000000000001 38.22000000000001 31.720000000000006 39.930000000000014 31.210000000000004 C 43.890000000000015 30.040000000000006 50.15000000000001 30.910000000000004 56.98000000000002 35.86000000000001 L 54.890000000000015 38.74000000000001 z M 32.25 64.00999999999999 C 38.06 68.22999999999999 43.13 69.05 46.21 68.13 C 47.17 67.83999999999999 47.89 67.39999999999999 48.29 66.86 C 48.61 66.42999999999999 48.73 65.91 48.61 65.35 C 48.28 63.849999999999994 46.54 62.07999999999999 42.91 60.489999999999995 C 42.36 60.24999999999999 41.629999999999995 59.94 40.88999999999999 59.62 C 39.88999999999999 59.19 38.849999999999994 58.75 37.63999999999999 58.21 C 33.49999999999999 56.36 29.07999999999999 54.120000000000005 25.369999999999994 50.9 C 22.649999999999995 48.54 20.329999999999995 45.67 18.789999999999992 42.089999999999996 C 17.66999999999999 45.4 17.109999999999992 49.06999999999999 17.18999999999999 52.69 C 17.29999999999999 57.53 18.55999999999999 62.26 21.16999999999999 65.9 L 22.04999999999999 67.12 L 14.259999999999991 74.94 L 13.04999999999999 73.19 C 8.64999999999999 66.86 6.40999999999999 59.47 6.34999999999999 52.06 C 6.28999999999999 45.150000000000006 8.12999999999999 38.230000000000004 11.859999999999989 32.120000000000005 L 9.769999999999989 30.220000000000006 C 7.949999999999989 33.11000000000001 6.4899999999999896 36.24000000000001 5.439999999999989 39.57000000000001 C 4.229999999999989 43.41000000000001 3.5799999999999885 47.50000000000001 3.5799999999999885 51.74000000000001 C 3.5799999999999885 57.13000000000001 4.629999999999988 62.260000000000005 6.5399999999999885 66.95000000000002 C 8.519999999999989 71.82000000000002 11.419999999999987 76.22000000000001 15.029999999999989 79.92000000000002 C 18.18999999999999 83.00000000000001 21.85999999999999 85.56000000000002 25.889999999999986 87.48000000000002 C 29.819999999999986 89.35000000000002 34.08999999999999 90.60000000000002 38.58999999999999 91.11000000000001 L 40.16999999999999 91.29000000000002 L 40.16999999999999 102.71000000000002 L 36.609999999999985 102.71000000000002 L 36.609999999999985 94.43000000000002 C 32.289999999999985 93.78000000000002 28.179999999999986 92.50000000000001 24.369999999999983 90.69000000000003 C 19.969999999999985 88.60000000000002 15.979999999999983 85.80000000000003 12.529999999999983 82.44000000000003 L 12.499999999999984 82.41000000000003 C 8.559999999999985 78.37000000000002 5.399999999999984 73.58000000000003 3.2399999999999842 68.28000000000003 C 1.1599999999999842 63.17000000000003 0.01999999999998403 57.58000000000003 0.01999999999998403 51.73000000000003 C 0.01999999999998403 47.12000000000003 0.729999999999984 42.67000000000003 2.049999999999984 38.49000000000003 C 3.409999999999984 34.17000000000003 5.429999999999984 30.13000000000003 7.989999999999984 26.49000000000003 L 9.149999999999984 24.840000000000032 L 16.489999999999984 31.52000000000003 L 15.639999999999985 32.790000000000035 C 11.749999999999984 38.60000000000004 9.839999999999986 45.320000000000036 9.899999999999984 52.02000000000004 C 9.949999999999985 58.03000000000004 11.589999999999984 64.03000000000004 14.809999999999985 69.35000000000004 L 17.459999999999983 66.69000000000004 C 14.969999999999983 62.65000000000004 13.759999999999984 57.73000000000004 13.649999999999983 52.74000000000004 C 13.519999999999982 46.890000000000036 14.909999999999982 40.91000000000004 17.519999999999982 36.16000000000004 L 19.84999999999998 31.920000000000037 L 20.81999999999998 36.66000000000004 C 21.83999999999998 41.67000000000004 24.43999999999998 45.35000000000004 27.719999999999978 48.20000000000004 C 31.099999999999977 51.13000000000004 35.21999999999998 53.22000000000004 39.10999999999998 54.960000000000036 C 40.09999999999998 55.400000000000034 41.21999999999998 55.88000000000004 42.30999999999998 56.35000000000004 C 42.95999999999998 56.63000000000004 43.59999999999998 56.900000000000034 44.35999999999998 57.23000000000004 C 49.17999999999998 59.34000000000004 51.56999999999998 62.070000000000036 52.119999999999976 64.59000000000005 C 52.46999999999998 66.20000000000005 52.10999999999998 67.71000000000005 51.159999999999975 68.97000000000004 C 50.299999999999976 70.12000000000005 48.949999999999974 71.01000000000005 47.239999999999974 71.52000000000004 C 43.27999999999997 72.69000000000004 37.019999999999975 71.82000000000004 30.189999999999973 66.87000000000003 L 32.27999999999997 63.99000000000003 z" stroke-linecap="round" />
</g>
</g>
</g>
<g transform="matrix(1.9211538461538462 0 0 1.9211538461538462 758.0512961358392 466.80493929912336)" id="text-logo-path-group"  >
<g style=""  paint-order="stroke"   >
		<g transform="matrix(1 0 0 1 -5.684342e-14 0)" id="text-logo-path-0"  >
<path style="stroke: none; stroke-width: 0; stroke-dasharray: none; stroke-linecap: butt; stroke-dashoffset: 0; stroke-linejoin: miter; stroke-miterlimit: 4; fill: rgb(199,162,86); fill-rule: nonzero; opacity: 1;"  paint-order="stroke"  transform=" translate(-259.03499999999997, 13.790000000000003)" d="M 6.21 0 L 1.78 0 Q 1.58 0 1.58 -0.2 L 1.58 -0.2 L 1.66 -27.38 Q 1.66 -27.54 1.82 -27.54 L 1.82 -27.54 L 9.42 -27.54 Q 13.06 -27.54 15.17 -25.32 Q 17.29 -23.11 17.29 -19.31 L 17.29 -19.31 Q 17.29 -16.5 16.18 -14.44 Q 15.08 -12.39 13.3 -11.28 Q 11.51 -10.17 9.42 -10.17 L 9.42 -10.17 L 6.41 -10.17 L 6.41 -0.2 Q 6.41 0 6.21 0 L 6.21 0 Z M 6.41 -22.79 L 6.41 -14.96 L 9.42 -14.96 Q 10.68 -14.96 11.61 -16.16 Q 12.54 -17.37 12.54 -19.31 L 12.54 -19.31 Q 12.54 -20.85 11.71 -21.84 Q 10.88 -22.83 9.42 -22.83 L 9.42 -22.83 L 6.41 -22.79 Z M 38.14 0 L 33.67 0 Q 33.51 0 33.51 -0.2 L 33.51 -0.2 L 33.59 -27.38 Q 33.59 -27.54 33.75 -27.54 L 33.75 -27.54 L 41.74 -27.54 Q 43.88 -27.54 45.68 -26.49 Q 47.48 -25.44 48.55 -23.68 Q 49.62 -21.92 49.62 -19.71 L 49.62 -19.71 Q 49.62 -18.24 49.18 -17.07 Q 48.75 -15.91 48.16 -15.1 Q 47.56 -14.28 47.09 -13.89 L 47.09 -13.89 Q 49.22 -11.51 49.22 -8.31 L 49.22 -8.31 L 49.26 -0.2 Q 49.26 0 49.07 0 L 49.07 0 L 44.59 0 Q 44.44 0 44.44 -0.12 L 44.44 -0.12 L 44.44 -8.31 Q 44.44 -9.73 43.43 -10.78 Q 42.42 -11.83 40.95 -11.83 L 40.95 -11.83 L 38.34 -11.83 L 38.3 -0.2 Q 38.3 0 38.14 0 L 38.14 0 Z M 38.34 -22.79 L 38.34 -16.58 L 41.74 -16.58 Q 42.97 -16.58 43.92 -17.49 Q 44.87 -18.4 44.87 -19.71 L 44.87 -19.71 Q 44.87 -20.97 43.94 -21.88 Q 43.01 -22.79 41.74 -22.79 L 41.74 -22.79 L 38.34 -22.79 Z M 73.56 0.4 L 73.56 0.4 Q 71.42 0.4 69.66 -0.69 Q 67.9 -1.78 66.83 -3.58 Q 65.76 -5.38 65.76 -7.56 L 65.76 -7.56 L 65.8 -20.1 Q 65.8 -22.28 66.85 -24.06 Q 67.9 -25.84 69.68 -26.91 Q 71.46 -27.98 73.56 -27.98 L 73.56 -27.98 Q 75.69 -27.98 77.44 -26.91 Q 79.18 -25.84 80.23 -24.06 Q 81.27 -22.28 81.27 -20.1 L 81.27 -20.1 L 81.31 -7.56 Q 81.31 -5.38 80.27 -3.58 Q 79.22 -1.78 77.46 -0.69 Q 75.69 0.4 73.56 0.4 Z M 73.56 -4.39 L 73.56 -4.39 Q 74.75 -4.39 75.64 -5.36 Q 76.53 -6.33 76.53 -7.56 L 76.53 -7.56 L 76.49 -20.1 Q 76.49 -21.41 75.66 -22.32 Q 74.82 -23.23 73.56 -23.23 L 73.56 -23.23 Q 72.33 -23.23 71.46 -22.34 Q 70.59 -21.45 70.59 -20.1 L 70.59 -20.1 L 70.59 -7.56 Q 70.59 -6.25 71.46 -5.32 Q 72.33 -4.39 73.56 -4.39 Z M 105.41 0 L 98.33 0 Q 98.17 0 98.17 -0.2 L 98.17 -0.2 L 98.25 -27.38 Q 98.25 -27.54 98.41 -27.54 L 98.41 -27.54 L 106 -27.54 Q 108.26 -27.54 110.04 -26.45 Q 111.82 -25.36 112.85 -23.58 Q 113.88 -21.8 113.88 -19.71 L 113.88 -19.71 Q 113.88 -18 113.11 -16.54 Q 112.34 -15.08 111.27 -14.17 L 111.27 -14.17 Q 112.41 -13.02 113.05 -11.51 Q 113.68 -10.01 113.68 -8.35 L 113.68 -8.35 Q 113.68 -6.05 112.57 -4.15 Q 111.47 -2.26 109.59 -1.13 Q 107.71 0 105.41 0 L 105.41 0 Z M 103 -22.83 L 103 -16.62 L 106 -16.62 Q 107.39 -16.62 108.24 -17.59 Q 109.09 -18.56 109.09 -19.71 L 109.09 -19.71 Q 109.09 -20.97 108.18 -21.9 Q 107.27 -22.83 106 -22.83 L 106 -22.83 L 103 -22.83 Z M 103 -11.83 L 102.96 -4.83 L 105.41 -4.83 Q 106.84 -4.83 107.86 -5.88 Q 108.89 -6.92 108.89 -8.35 L 108.89 -8.35 Q 108.89 -9.77 107.86 -10.8 Q 106.84 -11.83 105.41 -11.83 L 105.41 -11.83 L 103 -11.83 Z M 128.24 -0.2 L 128.24 -0.2 L 133.15 -27.38 Q 133.19 -27.54 133.35 -27.54 L 133.35 -27.54 L 139.08 -27.54 Q 139.24 -27.54 139.28 -27.38 L 139.28 -27.38 L 143.99 -0.2 Q 144.03 0 143.83 0 L 143.83 0 L 139.44 0 Q 139.28 0 139.24 -0.2 L 139.24 -0.2 L 138.81 -3.09 L 133.43 -3.09 L 132.99 -0.2 Q 132.95 0 132.79 0 L 132.79 0 L 128.4 0 Q 128.24 0 128.24 -0.2 Z M 136 -18.44 L 134.22 -7.32 L 138.02 -7.32 L 136.39 -18.44 L 136.16 -19.9 L 136 -18.44 Z M 167.57 0 L 160.49 0 Q 160.33 0 160.33 -0.2 L 160.33 -0.2 L 160.41 -27.38 Q 160.41 -27.54 160.57 -27.54 L 160.57 -27.54 L 168.17 -27.54 Q 170.42 -27.54 172.2 -26.45 Q 173.98 -25.36 175.01 -23.58 Q 176.04 -21.8 176.04 -19.71 L 176.04 -19.71 Q 176.04 -18 175.27 -16.54 Q 174.5 -15.08 173.43 -14.17 L 173.43 -14.17 Q 174.58 -13.02 175.21 -11.51 Q 175.84 -10.01 175.84 -8.35 L 175.84 -8.35 Q 175.84 -6.05 174.74 -4.15 Q 173.63 -2.26 171.75 -1.13 Q 169.87 0 167.57 0 L 167.57 0 Z M 165.16 -22.83 L 165.16 -16.62 L 168.17 -16.62 Q 169.55 -16.62 170.4 -17.59 Q 171.25 -18.56 171.25 -19.71 L 171.25 -19.71 Q 171.25 -20.97 170.34 -21.9 Q 169.43 -22.83 168.17 -22.83 L 168.17 -22.83 L 165.16 -22.83 Z M 165.16 -11.83 L 165.12 -4.83 L 167.57 -4.83 Q 169 -4.83 170.03 -5.88 Q 171.06 -6.92 171.06 -8.35 L 171.06 -8.35 Q 171.06 -9.77 170.03 -10.8 Q 169 -11.83 167.57 -11.83 L 167.57 -11.83 L 165.16 -11.83 Z M 197.21 0 L 192.74 0 Q 192.54 0 192.54 -0.2 L 192.54 -0.2 L 192.58 -27.38 Q 192.58 -27.54 192.74 -27.54 L 192.74 -27.54 L 197.17 -27.54 Q 197.33 -27.54 197.33 -27.38 L 197.33 -27.38 L 197.37 -0.2 Q 197.37 0 197.21 0 L 197.21 0 Z M 228.03 0 L 215.25 0 Q 215.1 0 215.1 -0.2 L 215.1 -0.2 L 215.14 -27.34 Q 215.14 -27.54 215.33 -27.54 L 215.33 -27.54 L 219.73 -27.54 Q 219.92 -27.54 219.92 -27.34 L 219.92 -27.34 L 219.88 -4.87 L 228.03 -4.87 Q 228.23 -4.87 228.23 -4.67 L 228.23 -4.67 L 228.23 -0.2 Q 228.23 0 228.03 0 L 228.03 0 Z M 249.32 0 L 244.85 0 Q 244.65 0 244.65 -0.2 L 244.65 -0.2 L 244.69 -27.38 Q 244.69 -27.54 244.85 -27.54 L 244.85 -27.54 L 249.28 -27.54 Q 249.44 -27.54 249.44 -27.38 L 249.44 -27.38 L 249.48 -0.2 Q 249.48 0 249.32 0 L 249.32 0 Z M 275.24 0 L 270.77 0 Q 270.61 0 270.61 -0.2 L 270.61 -0.2 L 270.61 -22.75 L 265.47 -22.75 Q 265.27 -22.75 265.27 -22.95 L 265.27 -22.95 L 265.31 -27.38 Q 265.31 -27.54 265.47 -27.54 L 265.47 -27.54 L 280.5 -27.54 Q 280.7 -27.54 280.7 -27.38 L 280.7 -27.38 L 280.7 -22.95 Q 280.7 -22.75 280.54 -22.75 L 280.54 -22.75 L 275.36 -22.75 L 275.4 -0.2 Q 275.4 0 275.24 0 L 275.24 0 Z M 304.72 0 L 300.17 0 Q 300.05 0 300.05 -0.16 L 300.05 -0.16 L 300.09 -11.4 L 294.79 -27.38 Q 294.75 -27.54 294.91 -27.54 L 294.91 -27.54 L 299.3 -27.54 Q 299.5 -27.54 299.54 -27.38 L 299.54 -27.38 L 302.46 -16.74 L 305.43 -27.38 Q 305.47 -27.54 305.63 -27.54 L 305.63 -27.54 L 310.06 -27.54 Q 310.22 -27.54 310.18 -27.38 L 310.18 -27.38 L 304.84 -11.55 L 304.88 -0.16 Q 304.88 0 304.72 0 L 304.72 0 Z M 354.34 0 L 349.87 0 Q 349.71 0 349.71 -0.2 L 349.71 -0.2 L 349.71 -22.75 L 344.56 -22.75 Q 344.37 -22.75 344.37 -22.95 L 344.37 -22.95 L 344.41 -27.38 Q 344.41 -27.54 344.56 -27.54 L 344.56 -27.54 L 359.6 -27.54 Q 359.8 -27.54 359.8 -27.38 L 359.8 -27.38 L 359.8 -22.95 Q 359.8 -22.75 359.64 -22.75 L 359.64 -22.75 L 354.46 -22.75 L 354.5 -0.2 Q 354.5 0 354.34 0 L 354.34 0 Z M 380.22 0 L 375.74 0 Q 375.59 0 375.59 -0.2 L 375.59 -0.2 L 375.67 -27.38 Q 375.67 -27.54 375.82 -27.54 L 375.82 -27.54 L 383.82 -27.54 Q 385.95 -27.54 387.75 -26.49 Q 389.55 -25.44 390.62 -23.68 Q 391.69 -21.92 391.69 -19.71 L 391.69 -19.71 Q 391.69 -18.24 391.26 -17.07 Q 390.82 -15.91 390.23 -15.1 Q 389.63 -14.28 389.16 -13.89 L 389.16 -13.89 Q 391.29 -11.51 391.29 -8.31 L 391.29 -8.31 L 391.33 -0.2 Q 391.33 0 391.14 0 L 391.14 0 L 386.67 0 Q 386.51 0 386.51 -0.12 L 386.51 -0.12 L 386.51 -8.31 Q 386.51 -9.73 385.5 -10.78 Q 384.49 -11.83 383.03 -11.83 L 383.03 -11.83 L 380.41 -11.83 L 380.37 -0.2 Q 380.37 0 380.22 0 L 380.22 0 Z M 380.41 -22.79 L 380.41 -16.58 L 383.82 -16.58 Q 385.04 -16.58 385.99 -17.49 Q 386.94 -18.4 386.94 -19.71 L 386.94 -19.71 Q 386.94 -20.97 386.01 -21.88 Q 385.08 -22.79 383.82 -22.79 L 383.82 -22.79 L 380.41 -22.79 Z M 407.16 -0.2 L 407.16 -0.2 L 412.07 -27.38 Q 412.11 -27.54 412.27 -27.54 L 412.27 -27.54 L 418 -27.54 Q 418.16 -27.54 418.2 -27.38 L 418.2 -27.38 L 422.91 -0.2 Q 422.95 0 422.75 0 L 422.75 0 L 418.36 0 Q 418.2 0 418.16 -0.2 L 418.16 -0.2 L 417.73 -3.09 L 412.35 -3.09 L 411.91 -0.2 Q 411.87 0 411.71 0 L 411.71 0 L 407.32 0 Q 407.16 0 407.16 -0.2 Z M 414.92 -18.44 L 413.14 -7.32 L 416.94 -7.32 L 415.31 -18.44 L 415.08 -19.9 L 414.92 -18.44 Z M 446.53 -0.04 L 439.45 0 Q 439.25 0 439.25 -0.2 L 439.25 -0.2 L 439.33 -27.38 Q 439.33 -27.54 439.49 -27.54 L 439.49 -27.54 L 446.89 -27.58 Q 449.07 -27.62 450.87 -26.55 Q 452.67 -25.48 453.73 -23.68 Q 454.8 -21.88 454.8 -19.71 L 454.8 -19.71 L 454.8 -8.35 Q 454.8 -6.05 453.69 -4.17 Q 452.59 -2.29 450.73 -1.19 Q 448.87 -0.08 446.53 -0.04 L 446.53 -0.04 Z M 444.12 -22.79 L 444.08 -4.87 L 446.53 -4.87 Q 448 -4.87 449.01 -5.9 Q 450.01 -6.92 450.01 -8.35 L 450.01 -8.35 L 450.01 -19.74 Q 450.01 -21.01 449.09 -21.94 Q 448.16 -22.87 446.89 -22.83 L 446.89 -22.83 L 444.12 -22.79 Z M 484.72 0 L 471.94 0 Q 471.78 0 471.78 -0.2 L 471.78 -0.2 L 471.82 -27.38 Q 471.82 -27.54 471.98 -27.54 L 471.98 -27.54 L 484.68 -27.54 Q 484.84 -27.54 484.84 -27.34 L 484.84 -27.34 L 484.84 -22.91 Q 484.84 -22.75 484.68 -22.75 L 484.68 -22.75 L 476.57 -22.75 L 476.57 -16.58 L 484.68 -16.58 Q 484.84 -16.58 484.84 -16.42 L 484.84 -16.42 L 484.87 -11.95 Q 484.87 -11.79 484.72 -11.79 L 484.72 -11.79 L 476.57 -11.79 L 476.57 -4.87 L 484.72 -4.87 Q 484.87 -4.87 484.87 -4.67 L 484.87 -4.67 L 484.87 -0.16 Q 484.87 0 484.72 0 L 484.72 0 Z M 508.73 0.4 L 508.73 0.4 Q 506.6 0.4 504.84 -0.69 Q 503.08 -1.78 502.03 -3.58 Q 500.98 -5.38 500.98 -7.56 L 500.98 -7.56 L 500.98 -9.38 Q 500.98 -9.58 501.18 -9.58 L 501.18 -9.58 L 505.61 -9.58 Q 505.77 -9.58 505.77 -9.38 L 505.77 -9.38 L 505.77 -7.56 Q 505.77 -6.25 506.64 -5.32 Q 507.51 -4.39 508.73 -4.39 L 508.73 -4.39 Q 509.96 -4.39 510.83 -5.34 Q 511.7 -6.29 511.7 -7.56 L 511.7 -7.56 Q 511.7 -9.02 509.8 -10.09 L 509.8 -10.09 Q 509.17 -10.45 507.82 -11.2 Q 506.48 -11.95 505.29 -12.62 L 505.29 -12.62 Q 503.12 -13.89 502.07 -15.81 Q 501.02 -17.73 501.02 -20.14 L 501.02 -20.14 Q 501.02 -22.36 502.09 -24.12 Q 503.16 -25.88 504.92 -26.91 Q 506.68 -27.94 508.73 -27.94 L 508.73 -27.94 Q 510.83 -27.94 512.59 -26.89 Q 514.35 -25.84 515.4 -24.08 Q 516.45 -22.32 516.45 -20.14 L 516.45 -20.14 L 516.45 -16.9 Q 516.45 -16.74 516.29 -16.74 L 516.29 -16.74 L 511.86 -16.74 Q 511.7 -16.74 511.7 -16.9 L 511.7 -16.9 L 511.66 -20.14 Q 511.66 -21.53 510.79 -22.4 Q 509.92 -23.27 508.73 -23.27 L 508.73 -23.27 Q 507.51 -23.27 506.64 -22.34 Q 505.77 -21.41 505.77 -20.14 L 505.77 -20.14 Q 505.77 -18.83 506.32 -17.96 Q 506.88 -17.09 508.34 -16.3 L 508.34 -16.3 Q 508.54 -16.18 509.11 -15.89 Q 509.68 -15.59 510.36 -15.21 Q 511.03 -14.84 511.56 -14.56 Q 512.1 -14.28 512.22 -14.21 L 512.22 -14.21 Q 514.2 -13.1 515.34 -11.49 Q 516.49 -9.89 516.49 -7.56 L 516.49 -7.56 Q 516.49 -5.3 515.44 -3.5 Q 514.39 -1.7 512.63 -0.65 Q 510.87 0.4 508.73 0.4 Z" stroke-linecap="round" />
</g>
</g>
</g>
<g transform="matrix(1.9211538461538462 0 0 1.9211538461538462 713.2647698666988 542.7300021827243)" id="tagline-f1bb1270-26dc-4251-86e8-cae86ad32ac4-logo-path-group"  >
<g style=""  paint-order="stroke"   >
		<g transform="matrix(1 0 0 1 0 0)" id="tagline-f1bb1270-26dc-4251-86e8-cae86ad32ac4-logo-path-0"  >
<path style="stroke: none; stroke-width: 0; stroke-dasharray: none; stroke-linecap: butt; stroke-dashoffset: 0; stroke-linejoin: miter; stroke-miterlimit: 4; fill: rgb(239,206,111); fill-rule: nonzero; opacity: 1;"  paint-order="stroke"  transform=" translate(-121.61000000000003, 10.379999999999999)" d="M 6.25 0.3 L 6.25 0.3 Q 4.65 0.3 3.32 -0.52 Q 2 -1.34 1.21 -2.7 Q 0.42 -4.05 0.42 -5.69 L 0.42 -5.69 L 0.42 -7.06 Q 0.42 -7.21 0.57 -7.21 L 0.57 -7.21 L 3.9 -7.21 Q 4.02 -7.21 4.02 -7.06 L 4.02 -7.06 L 4.02 -5.69 Q 4.02 -4.71 4.68 -4.01 Q 5.33 -3.31 6.25 -3.31 L 6.25 -3.31 Q 7.18 -3.31 7.83 -4.02 Q 8.49 -4.74 8.49 -5.69 L 8.49 -5.69 Q 8.49 -6.79 7.06 -7.59 L 7.06 -7.59 Q 6.58 -7.86 5.57 -8.43 Q 4.56 -8.99 3.66 -9.5 L 3.66 -9.5 Q 2.03 -10.45 1.24 -11.9 Q 0.45 -13.34 0.45 -15.16 L 0.45 -15.16 Q 0.45 -16.83 1.25 -18.15 Q 2.06 -19.48 3.38 -20.25 Q 4.71 -21.03 6.25 -21.03 L 6.25 -21.03 Q 7.83 -21.03 9.16 -20.24 Q 10.48 -19.45 11.27 -18.12 Q 12.06 -16.8 12.06 -15.16 L 12.06 -15.16 L 12.06 -12.72 Q 12.06 -12.6 11.94 -12.6 L 11.94 -12.6 L 8.61 -12.6 Q 8.49 -12.6 8.49 -12.72 L 8.49 -12.72 L 8.46 -15.16 Q 8.46 -16.2 7.8 -16.86 Q 7.15 -17.51 6.25 -17.51 L 6.25 -17.51 Q 5.33 -17.51 4.68 -16.81 Q 4.02 -16.11 4.02 -15.16 L 4.02 -15.16 Q 4.02 -14.18 4.44 -13.52 Q 4.85 -12.87 5.96 -12.27 L 5.96 -12.27 Q 6.11 -12.18 6.54 -11.96 Q 6.97 -11.73 7.48 -11.45 Q 7.98 -11.17 8.38 -10.96 Q 8.79 -10.75 8.88 -10.69 L 8.88 -10.69 Q 10.36 -9.86 11.23 -8.65 Q 12.09 -7.45 12.09 -5.69 L 12.09 -5.69 Q 12.09 -3.99 11.3 -2.64 Q 10.51 -1.28 9.19 -0.49 Q 7.86 0.3 6.25 0.3 Z M 24.78 0 L 21.41 0 Q 21.3 0 21.3 -0.15 L 21.3 -0.15 L 21.36 -20.61 Q 21.36 -20.73 21.47 -20.73 L 21.47 -20.73 L 25.11 -20.73 Q 25.23 -20.73 25.32 -20.61 L 25.32 -20.61 L 28.03 -16.68 L 30.74 -20.61 Q 30.83 -20.73 30.95 -20.73 L 30.95 -20.73 L 34.61 -20.73 Q 34.73 -20.73 34.73 -20.61 L 34.73 -20.61 L 34.79 -0.15 Q 34.79 0 34.67 0 L 34.67 0 L 31.3 0 Q 31.18 0 31.18 -0.15 L 31.18 -0.15 L 31.15 -15.34 L 28.03 -10.81 L 24.93 -15.34 L 24.9 -0.15 Q 24.9 0 24.78 0 L 24.78 0 Z M 43.4 -0.15 L 43.4 -0.15 L 47.09 -20.61 Q 47.12 -20.73 47.24 -20.73 L 47.24 -20.73 L 51.56 -20.73 Q 51.68 -20.73 51.71 -20.61 L 51.71 -20.61 L 55.25 -0.15 Q 55.28 0 55.13 0 L 55.13 0 L 51.82 0 Q 51.71 0 51.68 -0.15 L 51.68 -0.15 L 51.35 -2.32 L 47.3 -2.32 L 46.97 -0.15 Q 46.94 0 46.82 0 L 46.82 0 L 43.51 0 Q 43.4 0 43.4 -0.15 Z M 49.23 -13.88 L 47.89 -5.51 L 50.75 -5.51 L 49.53 -13.88 L 49.35 -14.98 L 49.23 -13.88 Z M 67.73 0 L 64.36 0 Q 64.24 0 64.24 -0.15 L 64.24 -0.15 L 64.3 -20.61 Q 64.3 -20.73 64.42 -20.73 L 64.42 -20.73 L 70.44 -20.73 Q 72.05 -20.73 73.4 -19.94 Q 74.76 -19.15 75.56 -17.83 Q 76.37 -16.5 76.37 -14.83 L 76.37 -14.83 Q 76.37 -13.73 76.04 -12.85 Q 75.71 -11.97 75.26 -11.36 Q 74.82 -10.75 74.46 -10.45 L 74.46 -10.45 Q 76.07 -8.67 76.07 -6.25 L 76.07 -6.25 L 76.1 -0.15 Q 76.1 0 75.95 0 L 75.95 0 L 72.58 0 Q 72.46 0 72.46 -0.09 L 72.46 -0.09 L 72.46 -6.25 Q 72.46 -7.33 71.71 -8.12 Q 70.95 -8.91 69.84 -8.91 L 69.84 -8.91 L 67.88 -8.91 L 67.85 -0.15 Q 67.85 0 67.73 0 L 67.73 0 Z M 67.88 -17.16 L 67.88 -12.48 L 70.44 -12.48 Q 71.36 -12.48 72.08 -13.16 Q 72.79 -13.85 72.79 -14.83 L 72.79 -14.83 Q 72.79 -15.79 72.09 -16.47 Q 71.39 -17.16 70.44 -17.16 L 70.44 -17.16 L 67.88 -17.16 Z M 91.47 0 L 88.1 0 Q 87.98 0 87.98 -0.15 L 87.98 -0.15 L 87.98 -17.13 L 84.11 -17.13 Q 83.96 -17.13 83.96 -17.27 L 83.96 -17.27 L 83.99 -20.61 Q 83.99 -20.73 84.11 -20.73 L 84.11 -20.73 L 95.43 -20.73 Q 95.58 -20.73 95.58 -20.61 L 95.58 -20.61 L 95.58 -17.27 Q 95.58 -17.13 95.46 -17.13 L 95.46 -17.13 L 91.56 -17.13 L 91.59 -0.15 Q 91.59 0 91.47 0 L 91.47 0 Z M 122.03 0 L 118.66 0 Q 118.54 0 118.54 -0.15 L 118.54 -0.15 L 118.54 -17.13 L 114.67 -17.13 Q 114.52 -17.13 114.52 -17.27 L 114.52 -17.27 L 114.55 -20.61 Q 114.55 -20.73 114.67 -20.73 L 114.67 -20.73 L 125.99 -20.73 Q 126.14 -20.73 126.14 -20.61 L 126.14 -20.61 L 126.14 -17.27 Q 126.14 -17.13 126.02 -17.13 L 126.02 -17.13 L 122.11 -17.13 L 122.14 -0.15 Q 122.14 0 122.03 0 L 122.03 0 Z M 138.2 0 L 134.83 0 Q 134.71 0 134.71 -0.15 L 134.71 -0.15 L 134.77 -20.61 Q 134.77 -20.73 134.89 -20.73 L 134.89 -20.73 L 140.91 -20.73 Q 142.52 -20.73 143.87 -19.94 Q 145.23 -19.15 146.03 -17.83 Q 146.84 -16.5 146.84 -14.83 L 146.84 -14.83 Q 146.84 -13.73 146.51 -12.85 Q 146.18 -11.97 145.73 -11.36 Q 145.29 -10.75 144.93 -10.45 L 144.93 -10.45 Q 146.54 -8.67 146.54 -6.25 L 146.54 -6.25 L 146.57 -0.15 Q 146.57 0 146.42 0 L 146.42 0 L 143.05 0 Q 142.93 0 142.93 -0.09 L 142.93 -0.09 L 142.93 -6.25 Q 142.93 -7.33 142.17 -8.12 Q 141.42 -8.91 140.31 -8.91 L 140.31 -8.91 L 138.35 -8.91 L 138.32 -0.15 Q 138.32 0 138.2 0 L 138.2 0 Z M 138.35 -17.16 L 138.35 -12.48 L 140.91 -12.48 Q 141.83 -12.48 142.55 -13.16 Q 143.26 -13.85 143.26 -14.83 L 143.26 -14.83 Q 143.26 -15.79 142.56 -16.47 Q 141.86 -17.16 140.91 -17.16 L 140.91 -17.16 L 138.35 -17.16 Z M 155.18 -0.15 L 155.18 -0.15 L 158.87 -20.61 Q 158.9 -20.73 159.02 -20.73 L 159.02 -20.73 L 163.34 -20.73 Q 163.46 -20.73 163.49 -20.61 L 163.49 -20.61 L 167.03 -0.15 Q 167.06 0 166.91 0 L 166.91 0 L 163.6 0 Q 163.49 0 163.46 -0.15 L 163.46 -0.15 L 163.13 -2.32 L 159.08 -2.32 L 158.75 -0.15 Q 158.72 0 158.6 0 L 158.6 0 L 155.29 0 Q 155.18 0 155.18 -0.15 Z M 161.01 -13.88 L 159.67 -5.51 L 162.53 -5.51 L 161.31 -13.88 L 161.13 -14.98 L 161.01 -13.88 Z M 181.5 -0.03 L 176.17 0 Q 176.02 0 176.02 -0.15 L 176.02 -0.15 L 176.08 -20.61 Q 176.08 -20.73 176.2 -20.73 L 176.2 -20.73 L 181.77 -20.76 Q 183.41 -20.79 184.77 -19.99 Q 186.12 -19.18 186.93 -17.83 Q 187.73 -16.47 187.73 -14.83 L 187.73 -14.83 L 187.73 -6.28 Q 187.73 -4.56 186.9 -3.14 Q 186.06 -1.73 184.66 -0.89 Q 183.26 -0.06 181.5 -0.03 L 181.5 -0.03 Z M 179.69 -17.16 L 179.66 -3.66 L 181.5 -3.66 Q 182.61 -3.66 183.37 -4.44 Q 184.13 -5.21 184.13 -6.28 L 184.13 -6.28 L 184.13 -14.86 Q 184.13 -15.82 183.43 -16.52 Q 182.73 -17.22 181.77 -17.19 L 181.77 -17.19 L 179.69 -17.16 Z M 200.72 0 L 197.35 0 Q 197.2 0 197.2 -0.15 L 197.2 -0.15 L 197.23 -20.61 Q 197.23 -20.73 197.35 -20.73 L 197.35 -20.73 L 200.69 -20.73 Q 200.8 -20.73 200.8 -20.61 L 200.8 -20.61 L 200.83 -0.15 Q 200.83 0 200.72 0 L 200.72 0 Z M 213.82 0 L 210.84 0 Q 210.6 0 210.6 -0.21 L 210.6 -0.21 L 210.57 -20.49 Q 210.57 -20.73 210.81 -20.73 L 210.81 -20.73 L 213.49 -20.73 L 218.53 -8.99 L 218.38 -20.49 Q 218.38 -20.73 218.65 -20.73 L 218.65 -20.73 L 221.59 -20.73 Q 221.77 -20.73 221.77 -20.49 L 221.77 -20.49 L 221.8 -0.18 Q 221.8 0 221.65 0 L 221.65 0 L 219.03 0 L 213.88 -10.96 L 214.09 -0.24 Q 214.09 0 213.82 0 L 213.82 0 Z M 236.96 0.3 L 236.96 0.3 Q 235.35 0.3 234.04 -0.51 Q 232.73 -1.31 231.94 -2.67 Q 231.15 -4.02 231.15 -5.69 L 231.15 -5.69 L 231.15 -15.13 Q 231.15 -16.74 231.94 -18.09 Q 232.73 -19.45 234.06 -20.25 Q 235.38 -21.06 236.96 -21.06 L 236.96 -21.06 Q 238.6 -21.06 239.93 -20.27 Q 241.25 -19.48 242.03 -18.14 Q 242.8 -16.8 242.8 -15.13 L 242.8 -15.13 L 242.8 -13.76 Q 242.8 -13.64 242.65 -13.64 L 242.65 -13.64 L 239.32 -13.64 Q 239.2 -13.64 239.2 -13.76 L 239.2 -13.76 L 239.2 -14.89 Q 239.2 -16.02 238.56 -16.77 Q 237.92 -17.51 236.96 -17.51 L 236.96 -17.51 Q 236.1 -17.51 235.43 -16.8 Q 234.76 -16.08 234.76 -15.13 L 234.76 -15.13 L 234.76 -5.69 Q 234.76 -4.71 235.41 -4.01 Q 236.07 -3.31 236.96 -3.31 L 236.96 -3.31 Q 237.92 -3.31 238.56 -3.99 Q 239.2 -4.68 239.2 -5.69 L 239.2 -5.69 L 239.2 -7.15 L 237.11 -7.15 Q 236.96 -7.15 236.96 -7.3 L 236.96 -7.3 L 236.96 -10.63 Q 236.96 -10.78 237.11 -10.78 L 237.11 -10.78 L 242.68 -10.78 Q 242.8 -10.78 242.8 -10.63 L 242.8 -10.63 L 242.8 -5.69 Q 242.8 -4.02 242.01 -2.67 Q 241.22 -1.31 239.91 -0.51 Q 238.6 0.3 236.96 0.3 Z" stroke-linecap="round" />
</g>
</g>
</g>
</svg>